<svg xmlns="http://www.w3.org/2000/svg" viewBox="0 0 297 297">
    <path d="M297 76.689c0-18.445-15.006-33.451-33.451-33.451H33.451C15.006 43.239 0 58.244 0 76.689v143.622c0 18.445 15.006 33.451 33.451 33.451H263.55c18.445 0 33.451-15.006 33.451-33.451V76.689zM33.451 63.512H263.55c7.266 0 13.177 5.912 13.177 13.177v18.436H20.273V76.689c0-7.266 5.912-13.177 13.178-13.177zm243.276 83.499H20.273v-31.613h256.454v31.613zm-13.178 86.477H33.451c-7.266 0-13.177-5.912-13.177-13.177v-53.027h256.454v53.027c-.001 7.266-5.913 13.177-13.179 13.177z"/>
    <path d="M113.909 198.898H44.727c-5.598 0-10.137 4.539-10.137 10.137s4.539 10.137 10.137 10.137h69.182c5.598 0 10.137-4.539 10.137-10.137s-4.539-10.137-10.137-10.137zM165.795 198.898H148.5c-5.598 0-10.137 4.539-10.137 10.137s4.539 10.137 10.137 10.137h17.295c5.598 0 10.137-4.539 10.137-10.137s-4.539-10.137-10.137-10.137z"/>
</svg>